# Blender 4.4.3
# www.blender.org
mtllib aplane.mtl
o Icosphere
v 0.000000 1.000000 0.000000
v -0.723607 0.447220 0.528455
v 0.280611 0.447220 1.432844
v 1.802165 0.447216 0.000000
v 0.280611 0.447220 -1.487364
v -0.723607 0.447220 -0.528710
v -0.276388 -0.255175 1.437194
v 1.631330 -0.291513 0.932782
v 1.631330 -0.291513 -0.970901
v -0.276388 -0.255175 -1.492122
v -0.894426 -0.447216 0.000000
v 0.000000 -1.089457 0.000000
v 0.162456 0.850654 0.499995
v -0.425323 0.850654 0.309011
v -0.262869 0.525738 1.253592
v -0.850648 0.525736 0.000000
v -0.425323 0.850654 -0.309011
v 0.525730 0.850652 0.000000
v 1.376222 0.525736 0.944585
v 0.162456 0.850654 -0.499995
v 1.376222 0.525736 -0.986219
v -0.262869 0.525738 -1.295225
v -0.951058 0.000000 0.309013
v -0.951058 0.000000 -0.309013
v 0.000000 0.000000 2.362798
v -0.587786 0.000000 1.253612
v 3.060103 0.000000 0.309013
v 1.275825 0.000000 2.171815
v 1.275825 0.000000 -2.299435
v 3.060103 0.000000 -0.309013
v -0.587786 0.000000 -1.295247
v 0.000000 0.000000 -2.490419
v -0.688189 -0.525736 0.499997
v 0.262869 -0.333693 1.253592
v 2.266679 -0.340442 0.000000
v 0.262869 -0.333693 -1.295225
v -0.688189 -0.525736 -0.499997
v -0.162456 -0.850654 0.499995
v -0.525730 -1.490024 0.000000
v 0.787259 -0.920001 0.309011
v 0.787259 -0.920001 -0.309011
v -0.162456 -0.850654 -0.499995
v 3.283039 0.000000 0.000000
vn -0.1024 0.9435 0.3151
vn -0.6999 0.6626 0.2667
vn 0.2680 0.9435 0.1947
vn 0.2680 0.9435 -0.1947
vn -0.1024 0.9435 -0.3151
vn -0.9056 0.3297 0.2667
vn -0.0116 0.9025 0.4305
vn 0.3199 0.9452 0.0657
vn 0.1063 0.9203 -0.3766
vn -0.7736 0.4781 -0.4160
vn -0.8943 0.2861 0.3439
vn 0.0672 0.8911 0.4488
vn 0.2891 0.9573 -0.0000
vn 0.0630 0.9048 -0.4211
vn -0.8969 0.2939 -0.3304
vn -0.4746 -0.7679 0.4302
vn 0.1613 -0.7959 0.5836
vn 0.4020 -0.8628 -0.3066
vn 0.0654 -0.8522 -0.5190
vn -0.8936 -0.3159 -0.3190
vn 0.5250 -0.6890 -0.4997
vn -0.2957 -0.4785 -0.8268
vn -0.4794 -0.7757 -0.4105
vn 0.0222 -0.8993 -0.4367
vn 0.0442 -0.8482 -0.5278
vn 0.1590 -0.8092 -0.5656
vn 0.2104 -0.9776 -0.0000
vn 0.3648 -0.9311 -0.0000
vn 0.4027 -0.8578 0.3193
vn 0.0222 -0.8993 0.4367
vn 0.0488 -0.8363 0.5461
vn 0.0619 -0.8390 0.5406
vn 0.5250 -0.6890 0.4997
vn -0.2957 -0.4785 0.8268
vn -0.8936 -0.3159 0.3190
vn -0.8897 -0.3304 -0.3151
vn -0.8874 -0.3250 -0.3269
vn -0.7189 -0.5346 -0.4442
vn -0.0458 -0.9647 -0.2593
vn 0.0415 -0.9599 -0.2771
vn 0.0856 -0.9681 -0.2353
vn 0.3009 -0.9221 -0.2434
vn 0.3176 -0.9482 -0.0000
vn 0.2975 -0.9211 0.2510
vn 0.0888 -0.9636 0.2522
vn 0.0445 -0.9537 0.2975
vn -0.0451 -0.9595 0.2780
vn -0.7088 -0.5307 0.4647
vn -0.8847 -0.3187 0.3402
vn -0.8897 -0.3304 0.3151
vn -0.7163 -0.6023 -0.3523
vn -0.7847 0.4850 -0.3859
vn -0.0109 0.9144 -0.4046
vn 0.3160 -0.9055 -0.2832
vn 0.4083 0.8363 -0.3660
vn 0.3205 0.9451 -0.0632
vn 0.3154 -0.8996 0.3022
vn 0.4049 0.8280 0.3878
vn 0.1126 0.9100 0.3990
vn -0.7098 -0.5956 0.3761
vn -0.7755 0.4793 0.4110
vn -0.7658 0.4733 0.4353
vn -0.9921 -0.1256 -0.0000
vn -0.9822 0.1876 -0.0000
vn -0.9057 0.3297 -0.2666
vn -0.6640 0.6708 -0.3304
vn -0.1062 0.9391 -0.3269
vn -0.0000 0.9257 -0.3782
vn 0.1011 0.9251 -0.3659
vn 0.2009 0.9687 -0.1459
vn 0.3009 0.9521 -0.0542
vn 0.3009 0.9520 0.0565
vn 0.2046 0.9675 0.1486
vn 0.1051 0.9175 0.3835
vn -0.6999 0.6626 -0.2666
vn -0.6071 0.7947 -0.0000
vn -0.3313 0.9435 -0.0000
vn 0.0018 0.9179 0.3968
vn -0.1105 0.9338 0.3402
vn -0.6558 0.6720 0.3439
vt 0.181819 0.000000
vt 0.227273 0.078731
vt 0.136365 0.078731
vt 0.272728 0.157461
vt 0.318182 0.078731
vt 0.363637 0.157461
vt 0.909091 0.000000
vt 0.954545 0.078731
vt 0.863636 0.078731
vt 0.727273 0.000000
vt 0.772727 0.078731
vt 0.681818 0.078731
vt 0.545455 0.000000
vt 0.590909 0.078731
vt 0.500000 0.078731
vt 0.318182 0.236191
vt 0.090910 0.157461
vt 0.181819 0.157461
vt 0.136365 0.236191
vt 0.818182 0.157461
vt 0.909091 0.157461
vt 0.863636 0.236191
vt 0.636364 0.157461
vt 0.727273 0.157461
vt 0.681818 0.236191
vt 0.454546 0.157461
vt 0.545455 0.157461
vt 0.500000 0.236191
vt 0.227273 0.236191
vt 0.045455 0.236191
vt 0.818182 0.236191
vt 0.772727 0.236191
vt 0.590909 0.236191
vt 0.409092 0.236191
vt 0.181819 0.314921
vt 0.272728 0.314921
vt 0.227273 0.393651
vt 0.000000 0.314921
vt 0.090910 0.314921
vt 0.045455 0.393651
vt 0.727273 0.314921
vt 0.818182 0.314921
vt 0.772727 0.393651
vt 0.545455 0.314921
vt 0.636364 0.314921
vt 0.590909 0.393651
vt 0.363637 0.314921
vt 0.454546 0.314921
vt 0.409092 0.393651
vt 0.500000 0.393651
vt 0.454546 0.472382
vt 0.681818 0.393651
vt 0.636364 0.472382
vt 0.863636 0.393651
vt 0.818182 0.472382
vt 0.909091 0.314921
vt 0.136365 0.393651
vt 0.090910 0.472382
vt 0.318182 0.393651
vt 0.272728 0.472382
vt 0.954545 0.236191
vt 1.000000 0.157461
vt 0.409092 0.078731
vt 0.363637 0.000000
s 0
f 1/1/1 14/2/1 13/3/1
f 2/4/2 14/5/2 16/6/2
f 1/7/3 13/8/3 18/9/3
f 1/10/4 18/11/4 20/12/4
f 1/13/5 20/14/5 17/15/5
f 2/4/6 16/6/6 23/16/6
f 3/17/7 15/18/7 25/19/7
f 4/20/8 19/21/8 27/22/8
f 5/23/9 21/24/9 29/25/9
f 6/26/10 22/27/10 31/28/10
f 2/4/11 23/16/11 26/29/11
f 3/17/12 25/19/12 28/30/12
f 4/20/13 27/22/13 43/31/13 30/32/13
f 5/23/14 29/25/14 32/33/14
f 6/26/15 31/28/15 24/34/15
f 7/35/16 33/36/16 38/37/16
f 8/38/17 34/39/17 40/40/17
f 9/41/18 35/42/18 41/43/18
f 10/44/19 36/45/19 42/46/19
f 11/47/20 37/48/20 39/49/20
f 39/49/21 42/50/21 12/51/21
f 39/49/22 37/48/22 42/50/22
f 37/48/23 10/44/23 42/50/23
f 42/46/24 41/52/24 12/53/24
f 42/46/25 36/45/25 41/52/25
f 36/45/26 9/41/26 41/52/26
f 41/43/27 40/54/27 12/55/27
f 41/43/28 35/42/28 40/54/28
f 35/42/29 8/56/29 40/54/29
f 40/40/30 38/57/30 12/58/30
f 40/40/31 34/39/31 38/57/31
f 34/39/32 7/35/32 38/57/32
f 38/37/33 39/59/33 12/60/33
f 38/37/34 33/36/34 39/59/34
f 33/36/35 11/47/35 39/59/35
f 24/34/36 37/48/36 11/47/36
f 24/34/37 31/28/37 37/48/37
f 31/28/38 10/44/38 37/48/38
f 32/33/39 36/45/39 10/44/39
f 32/33/40 29/25/40 36/45/40
f 29/25/41 9/41/41 36/45/41
f 30/32/42 35/42/42 9/41/42
f 30/32/43 43/31/43 27/22/43 35/42/43
f 27/22/44 8/56/44 35/42/44
f 28/30/45 34/39/45 8/38/45
f 28/30/46 25/19/46 34/39/46
f 25/19/47 7/35/47 34/39/47
f 26/29/48 33/36/48 7/35/48
f 26/29/49 23/16/49 33/36/49
f 23/16/50 11/47/50 33/36/50
f 31/28/51 32/33/51 10/44/51
f 31/28/52 22/27/52 32/33/52
f 22/27/53 5/23/53 32/33/53
f 29/25/54 30/32/54 9/41/54
f 29/25/55 21/24/55 30/32/55
f 21/24/56 4/20/56 30/32/56
f 27/22/57 28/61/57 8/56/57
f 27/22/58 19/21/58 28/61/58
f 19/21/59 3/62/59 28/61/59
f 25/19/60 26/29/60 7/35/60
f 25/19/61 15/18/61 26/29/61
f 15/18/62 2/4/62 26/29/62
f 23/16/63 24/34/63 11/47/63
f 23/16/64 16/6/64 24/34/64
f 16/6/65 6/26/65 24/34/65
f 17/15/66 22/27/66 6/26/66
f 17/15/67 20/14/67 22/27/67
f 20/14/68 5/23/68 22/27/68
f 20/12/69 21/24/69 5/23/69
f 20/12/70 18/11/70 21/24/70
f 18/11/71 4/20/71 21/24/71
f 18/9/72 19/21/72 4/20/72
f 18/9/73 13/8/73 19/21/73
f 13/8/74 3/62/74 19/21/74
f 16/6/75 17/63/75 6/26/75
f 16/6/76 14/5/76 17/63/76
f 14/5/77 1/64/77 17/63/77
f 13/3/78 15/18/78 3/17/78
f 13/3/79 14/2/79 15/18/79
f 14/2/80 2/4/80 15/18/80
